<?xml version="1.0" standalone="no"?>
<!DOCTYPE svg PUBLIC "-//W3C//DTD SVG 1.1//EN" "http://www.w3.org/Graphics/SVG/1.1/DTD/svg11.dtd">
<svg xmlns="http://www.w3.org/2000/svg">
<metadata>Generated by Fontastic.me</metadata>
<defs>
<font id="irhhde" horiz-adv-x="512">
<font-face font-family="irhhde" units-per-em="512" ascent="480" descent="-32"/>
<missing-glyph horiz-adv-x="512" />

<glyph unicode="&#97;" d="M291 472c2 0 3 0 3 0l42 0-1-48-41 0c-23 0-22-20-22-20l0-76 80 0-11-48-70 0 0-240-48 0 0 240-63 0 0 48 63 0c0 0 0 59 0 75 0 65 54 69 68 69m45 0l0 0m-45 32c-12 0-34-2-55-15-21-12-45-37-45-86l0-43-31 0c-9 0-17-3-23-9-6-6-9-15-9-23l0-48c0-18 14-32 32-32l31 0 0-208c0-17 15-32 32-32l48 0c18 0 32 15 32 32l0 208 38 0c14 0 27 10 31 23l11 48c3 10 1 20-5 28-6 8-15 13-26 13l-48 0 0 32 31 0c18 0 32 14 32 32l1 46c0 0 0 1 0 2 0 17-15 32-32 32l-41 0c-1 0-2 0-4 0z"/>
<glyph unicode="&#98;" d="M342 433c27 0 51-11 67-29 21 5 41 12 59 22-7-21-22-38-41-49 19 2 37 7 53 14-12-18-28-34-46-46 0-4 0-8 0-12 0-118-92-254-261-254-52 0-100 15-141 40 7 0 14-1 22-1 43 0 83 14 114 38-40 1-74 27-86 62 6-1 11-1 17-1 9 0 17 1 25 3-42 8-74 44-74 87 0 1 0 1 0 1 12-6 26-10 42-11-25 16-41 44-41 75 0 16 4 31 12 44 45-54 113-89 190-93-2 7-3 14-3 20 0 50 41 90 92 90m138-42l0 0m-138 74c-63 0-115-46-123-106-51 11-98 38-131 78-7 7-16 11-25 11-1 0-2 0-2 0-11-1-20-6-25-15-12-19-17-40-17-61 0-15 2-29 7-42-5-6-8-14-8-22l0-1c0-31 12-60 33-82-1-5-1-11 1-17 7-21 20-40 36-54-11-3-22-4-34-4-6 0-13 1-18 1-2 0-3 0-4 0-14 0-26-8-30-21-5-14 0-30 13-38 47-29 102-45 158-45 182 0 291 143 293 282 15 12 29 27 40 43 4 5 6 12 6 19 0 11-5 20-14 26 4 12 0 26-10 34-6 5-13 7-20 7-6 0-11-1-16-4-11-6-22-11-34-15-22 17-48 26-76 26z"/>
<glyph unicode="&#105;" d="M475 144c-4 0-8 2-9 6l-39 74-75-38c-5-3-11-1-14 4-3 5-1 12 5 15l84 43c5 3 11 1 14-4l43-85c3-5 1-11-4-14-2-1-3-1-5-1z m-460 0c-2 0-3 0-5 1-5 3-7 9-5 14l44 84c3 6 9 8 14 5l84-43c6-3 8-10 5-15-3-5-9-7-14-4l-75 38-39-74c-2-4-5-6-9-6z m230-103c-109 0-197 89-197 198 0 5 5 10 10 10 6 0 11-5 11-10 0-97 79-176 176-176 97 0 176 79 176 176 0 5 5 10 10 10 6 0 11-5 11-10 0-109-88-198-197-198z m0 0c-6 0-11 5-11 11l0 337c0 6 5 10 11 10 6 0 11-4 11-10l0-337c0-6-5-11-11-11z m0 337c-27 0-48 22-48 48 0 27 21 49 48 49 27 0 48-22 48-49 0-26-21-48-48-48z m0 75c-15 0-27-12-27-27 0-15 12-27 27-27 15 0 27 12 27 27 0 15-12 27-27 27z m76-91l-152 0c-6 0-10 5-10 10 0 6 4 11 10 11l152 0c6 0 11-5 11-11 0-5-5-10-11-10z"/>
<glyph unicode="&#106;" d="M412 44l-312 0c-23 0-45 12-58 32-24 41-38 88-38 136 0 147 122 266 268 256 123-7 224-108 235-233 4-57-8-112-38-159-12-20-34-32-57-32z m-156 404c-127 0-230-106-230-236 0-45 12-88 35-125 8-14 23-22 39-22l312 0c16 0 31 8 39 22 27 43 39 94 34 146-9 115-102 207-214 214-5 0-10 1-15 1z m189-255l-19 0c-6 0-10 5-10 11 0 6 4 11 10 11l19 0c6 0 11-5 11-11 0-6-5-11-11-11z m-65 127c-2 0-5 2-7 4-4 4-4 10 0 15l14 14c4 4 11 4 15 0 4-4 4-11 0-15l-14-14c-2-2-5-4-8-4z m-124 57c-6 0-10 5-10 11l0 18c0 6 4 11 10 11 6 0 11-5 11-11l0-18c0-6-5-11-11-11z m-128-57c-2 0-5 2-7 4l-14 14c-4 4-4 11 0 15 4 4 11 4 15 0l14-14c4-5 4-11 0-15-2-2-5-4-8-4z m-41-127l-20 0c-6 0-10 5-10 11 0 6 4 11 10 11l20 0c6 0 10-5 10-11 0-6-4-11-10-11z m169-85c-12 0-23 4-32 13-18 18-18 48 0 66 17 17 47 17 65 0 17-18 17-48 0-66-9-9-20-13-33-13z m0 71c-6 0-12-3-17-7-9-10-9-26 0-36 9-9 25-9 34 0 10 10 10 26 0 36-4 4-10 7-17 7z m25-11c-3 0-5 2-7 4-5 4-5 10-1 15l98 100c4 4 11 4 15 0 4-4 5-11 0-15l-97-100c-2-2-5-4-8-4z"/>
<glyph unicode="&#107;" d="M257 25c-3 0-6 1-8 4l-205 205c-26 25-40 59-40 95 0 36 14 70 40 96 25 25 59 39 95 39 36 0 70-14 96-39l22-22 21 22c26 25 60 39 96 39 36 0 70-14 95-39 53-53 53-138 0-191l-205-205c-2-3-5-4-7-4z m-118 418c-30 0-59-12-80-33-22-22-33-50-33-81 0-30 11-59 33-80l198-198 197 198c45 44 45 116 0 161-21 21-50 33-80 33-30 0-59-12-81-33l-29-30c-4-4-11-4-15 0l-29 30c-22 21-50 33-81 33z"/>
<glyph unicode="&#108;" d="M190 4c-3 0-6 2-9 4l-35 43-55-10c-3-1-7 1-10 4-2 3-3 7-2 10l41 111c2 6 8 8 13 6 6-2 9-8 7-13l-34-94 42 9c4 0 8-1 11-4l27-34 32 88c2 6 8 8 14 6 5-2 8-8 6-13l-38-106c-2-3-5-6-8-6-1-1-2-1-2-1z m133 0c-1 0-1 0-2 1-4 0-7 3-8 6l-39 106c-2 5 1 11 7 13 5 3 11 0 14-6l31-88 28 34c2 3 6 4 10 4l43-9-34 94c-2 5 1 11 6 13 6 2 12 0 14-6l40-111c2-3 1-7-2-10-2-3-6-5-10-4l-55 10-35-43c-2-2-5-4-8-4z m-21 136c-1 0-3 0-5 1l-41 24-41-24c-3-1-5-1-8-1-3 1-5 3-7 5l-23 41-48 0c-6 0-10 5-10 11l0 47-41 24c-3 2-5 4-5 7-1 2-1 5 1 8l23 41-23 41c-2 2-2 5-1 8 0 3 2 5 5 6l41 24 0 48c0 5 4 10 10 10l48 0 23 41c2 3 4 5 7 5 3 1 5 1 8-1l41-24 41 24c3 2 5 2 8 1 3 0 5-2 7-5l23-41 48 0c6 0 10-5 10-10l0-48 42-24c2-1 4-3 4-6 1-3 1-6-1-8l-23-41 23-41c2-3 2-6 1-8 0-3-2-5-4-7l-42-24 0-47c0-6-4-11-10-11l-48 0-23-41c-2-2-4-4-7-5-1 0-2 0-3 0z m-46 48c2 0 4 0 5-1l38-22 21 37c2 4 5 6 9 6l43 0 0 43c0 3 2 7 5 9l38 21-22 37c-2 4-2 8 0 11l22 37-38 22c-3 2-5 5-5 9l0 43-43 0c-4 0-7 2-9 5l-21 37-38-21c-3-2-7-2-10 0l-37 21-22-37c-2-3-5-5-9-5l-43 0 0-43c0-4-2-7-5-9l-38-22 22-37c2-3 2-7 0-11l-22-37 38-21c3-2 5-6 5-9l0-43 43 0c4 0 7-2 9-6l22-37 37 22c1 1 3 1 5 1z m0 27c-60 0-108 49-108 109 0 60 48 108 108 108 60 0 109-48 109-108 0-60-49-109-109-109z m0 196c-48 0-87-39-87-87 0-48 39-87 87-87 48 0 87 39 87 87 0 48-39 87-87 87z"/>
<glyph unicode="&#109;" d="M325 42l-138 0c-9 0-16 7-16 16l0 19c0 7 4 13 10 15 33 13 43 20 46 22l0 0c-4 6-8 12-10 19-3 4-6 8-6 13-1 5 0 10 2 14l0 14c0 25 17 40 43 40 26 0 42-15 42-40l0-14c3-4 3-9 3-14-1-5-3-10-6-13-3-7-6-13-10-19l0 0c2-2 11-8 46-22 6-2 10-8 10-15l0-19c0-9-7-16-16-16z m-133 22l128 0 0 10c-44 17-54 25-56 33 0 2-1 3-1 4l0 7c0 3 1 6 3 8 4 4 7 9 9 16 1 2 2 4 4 6-1 2-2 6-2 9l0 17c0 13-7 19-21 19-15 0-21-6-21-19l0-17c0-3-1-5-3-7 2-1 4-6 5-8 1-7 4-12 8-16 2-2 3-5 3-8l0-7c0-1 0-2 0-4-2-6-8-14-56-33z m304 213l-139 0c-8 0-16 7-16 16l0 19c0 7 4 13 11 15 32 13 42 19 46 22l0 0c-5 5-8 12-10 19-4 3-6 8-7 13 0 5 1 9 3 14l0 14c0 24 16 40 42 40 27 0 43-15 43-40l0-14c2-5 3-10 2-14 0-5-2-10-6-13-2-7-5-14-10-19l0-1c2-1 12-7 46-21 6-2 10-8 11-15l0-19c0-9-8-16-16-16z m-133 21l127 0 0 10c-43 18-53 26-55 34-1 1-1 2-1 3l0 8c0 3 1 5 3 7 4 4 7 10 9 17 0 2 2 4 4 5-2 2-2 7-2 10l0 17c0 13-7 19-22 19-14 0-21-6-21-19l0-17c0-3 0-5-2-7 2-2 4-6 4-8 2-7 5-13 9-17 2-2 3-4 3-7l0-8c0-1 0-2-1-3-2-8-12-16-55-34l0-10z m-209-21l-138 0c-9 0-16 7-16 16l0 19c0 7 4 13 10 15 33 13 43 19 46 22l0 0c-4 5-7 12-10 19-3 3-5 8-6 13-1 5 0 9 3 14l0 14c0 24 16 40 42 40 27 0 43-15 43-40l0-14c2-5 3-9 2-14-1-5-3-10-6-13-2-7-6-14-10-19l0-1c2-1 11-7 46-21 6-2 10-8 10-15l0-19c0-9-7-16-16-16z m-133 21l128 0 0 10c-43 18-53 26-56 34 0 1 0 2 0 3l0 8c0 3 1 5 3 7 3 4 6 10 8 17 1 2 2 4 4 5-1 2-2 7-2 10l0 17c0 13-6 19-21 19-14 0-21-6-21-19l0-17c0-3-1-5-2-7 2-2 3-6 4-8 2-7 5-13 9-17 1-2 3-4 3-7l0-8c0-1-1-2-1-3-2-7-8-15-56-34z m330 126c-2 0-4 1-5 2-53 31-122 31-175 0-5-3-12-1-14 4-3 5-2 11 3 14 60 35 137 35 196 0 6-3 7-9 4-14-2-4-5-6-9-6z m9-313c-3 0-7 2-9 5-1 2-2 4-2 6 0 3 2 7 5 9 43 28 71 74 77 125 1 6 6 10 12 9 5-1 9-5 9-10 0-1 0-1 0-2-6-57-38-108-86-140-2-1-4-2-6-2z m-203 0c-2 0-4 1-6 2-49 32-80 83-86 140-1 1-1 1-1 2 0 5 4 9 10 10 6 1 11-3 12-9 6-51 34-97 77-125 3-2 4-6 4-9 0-2 0-4-1-6-2-3-6-5-9-5z"/>
<glyph unicode="&#110;" d="M491-1l-180 0c-5 0-10 5-10 11 0 6 5 11 10 11l180 0 0 36c-42 41-158 85-166 88-4 2-8 6-8 11 0 7 8 12 15 10 5-2 127-49 174-94 4-4 6-9 6-15l0-37c0-11-9-21-21-21z m-292 0l-178 0c-12 0-21 10-21 21l0 37c0 6 2 11 6 15 48 46 169 92 174 94 7 2 15-3 15-10 0-6-4-10-9-11-15-6-124-48-165-88l0-37 178 1c6 0 11-5 11-11 0-6-5-11-11-11z m-2 179c-4 0-8 2-10 6-1 2-2 4-2 36-19 20-32 47-35 74-10 4-17 12-20 22-2 12 1 23 9 30-3 11-4 22-4 34 0 70 54 128 121 128 67 0 121-58 121-128 0-12-1-23-4-34 8-7 11-18 9-30-3-10-10-19-20-22-3-27-17-55-36-75 0-31 0-32-2-35-2-5-9-7-14-5-5 2-7 8-6 13 1 1 1 7 1 29 0 0 0 3 0 3 0 2 1 5 3 7 19 19 32 46 34 73 0 6 5 10 11 10 6 0 8 5 8 7 1 4 0 9-5 11-5 3-7 8-5 13 3 11 5 23 5 35 0 59-45 106-100 106-55 0-100-47-100-106 0-12 2-24 5-35 2-5 0-11-5-13-6-3-5-10-5-11 0-2 2-7 8-7 6 0 11-4 11-10 2-26 14-53 33-72 2-2 3-5 3-8l0-2c0-22 1-29 1-30 1-5-1-11-6-13-1-1-3-1-4-1z m34-97c-4 0-8 2-9 5-19 34-22 55-9 65 2 1 18 11 42 11 14 0 28-4 42-10 5-2 8-6 9-11 2-4 6-16-15-55-2-3-7-5-11-5-16 2-32 2-47 0-1 0-2 0-2 0z m24 59c-18 0-30-7-30-7 1 0 1-10 12-30 13 1 26 1 39 0 9 18 10 27 10 30-10 5-21 7-31 7z m27-141c-6 0-10 4-11 9l-6 52c0 6 4 11 10 12 6 0 11-4 11-10l6-51c1-6-3-11-9-12-1 0-1 0-1 0z m-51 0c-1 0-1 0-2 0-6 1-10 6-9 12l6 51c0 6 5 10 12 9 5 0 10-6 9-12l-6-51c0-5-5-9-10-9z"/>
<glyph unicode="&#111;" d="M397 108l-287 0c-47 0-88 31-100 74-11 41 6 81 45 106 13 67 70 114 137 114 31 0 61-10 86-29 53 4 97-22 115-66 60 1 112-45 112-100 0-53-49-99-108-99z m-205 273c-58 0-107-43-117-101-1-3-2-6-5-7-34-21-48-52-39-85 8-29 36-58 79-58l287 0c47 0 87 35 87 77 0 46-45 83-97 78-5-1-10 2-11 7-10 32-43 66-100 59-3 0-6 0-8 2-22 18-48 28-76 28z"/>
<glyph unicode="&#113;" d="M89 3c-22 0-43 9-59 25-16 15-25 36-25 59 0 22 9 43 25 59l192 167c-6 32-11 96 27 134 33 33 81 48 128 39 6-1 11-6 13-12 2-6 0-13-5-17l-53-54-10-45 38-38 45 10 54 53c9 9 26 4 29-8 9-47-5-95-39-128-20-20-52-31-91-31-13 0-28 1-43 4l-166-191c-17-17-38-26-60-26z m260 464c-32 0-62-12-85-35-34-35-24-101-20-120 1-4-1-8-3-11l-197-171c-11-11-17-27-17-43 0-17 6-32 18-44 23-24 64-24 88 0l170 195c3 3 7 5 11 4 15-3 30-5 44-5 24 0 55 4 76 25 26 27 39 64 34 100l-50-50c-1-1-3-2-5-3l-54-11c-4-1-8 1-10 3l-46 46c-2 2-4 6-3 10l11 54c1 2 2 4 3 5l50 50c-5 1-10 1-15 1z m-258-403c-7 0-13 2-18 7-10 10-10 26 0 36 10 10 27 10 36 0 10-10 10-26 0-36-4-5-11-7-18-7z m0 29c0 0-2 0-3-1-1-1-1-4 0-6 2-2 4-2 6 0 2 2 2 5 0 6-1 1-2 1-3 1z"/>
<glyph unicode="&#114;" d="M360 134c-3 0-5 1-7 2-5 4-5 11-2 15l91 105-91 105c-3 4-3 11 2 15 4 3 11 3 15-1l97-112c3-4 3-10 0-14l-97-112c-3-2-6-3-8-3z m-207 0c-3 0-6 1-8 3l-97 112c-4 4-4 10 0 14l97 112c4 4 10 4 15 1 4-4 5-11 1-15l-91-105 91-105c4-4 3-11-1-15-2-1-5-2-7-2z m29-93c-1 0-3 0-4 1-5 2-8 8-6 14l148 405c2 5 8 8 14 6 5-2 8-8 6-14l-148-405c-2-4-6-7-10-7z"/>
<glyph unicode="&#115;" d="M224 0l-213 0c-6 0-11 5-11 11l0 490c0 6 5 11 11 11l213 0c6 0 11-5 11-11l0-490c0-6-5-11-11-11z m-203 21l192 0 0 470-192 0z m150 406l-107 0c-6 0-11 4-11 10 0 6 5 11 11 11l107 0c6 0 10-5 10-11 0-6-4-10-10-10z m0-43l-107 0c-6 0-11 5-11 11 0 6 5 10 11 10l107 0c6 0 10-4 10-10 0-6-4-11-10-11z m0-43l-107 0c-6 0-11 5-11 11 0 6 5 11 11 11l107 0c6 0 10-5 10-11 0-6-4-11-10-11z m0-42l-107 0c-6 0-11 4-11 10 0 6 5 11 11 11l107 0c6 0 10-5 10-11 0-6-4-10-10-10z m0-107l-107 0c-6 0-11 5-11 11 0 6 5 10 11 10l107 0c6 0 10-4 10-10 0-6-4-11-10-11z m0-43l-107 0c-6 0-11 5-11 11 0 6 5 11 11 11l107 0c6 0 10-5 10-11 0-6-4-11-10-11z m0-42l-107 0c-6 0-11 4-11 10 0 6 5 11 11 11l107 0c6 0 10-5 10-11 0-6-4-10-10-10z m0-43l-107 0c-6 0-11 5-11 11 0 6 5 10 11 10l107 0c6 0 10-4 10-10 0-6-4-11-10-11z m330-64l-213 0c-6 0-11 5-11 11l0 490c0 6 5 11 11 11l213 0c6 0 11-5 11-11l0-490c0-6-5-11-11-11z m-202 21l192 0 0 470-192 0z m149 406l-107 0c-6 0-10 4-10 10 0 6 4 11 10 11l107 0c6 0 11-5 11-11 0-6-5-10-11-10z m0-43l-107 0c-6 0-10 5-10 11 0 6 4 10 10 10l107 0c6 0 11-4 11-10 0-6-5-11-11-11z m0-43l-107 0c-6 0-10 5-10 11 0 6 4 11 10 11l107 0c6 0 11-5 11-11 0-6-5-11-11-11z m0-42l-107 0c-6 0-10 4-10 10 0 6 4 11 10 11l107 0c6 0 11-5 11-11 0-6-5-10-11-10z m0-107l-107 0c-6 0-10 5-10 11 0 6 4 10 10 10l107 0c6 0 11-4 11-10 0-6-5-11-11-11z m0-43l-107 0c-6 0-10 5-10 11 0 6 4 11 10 11l107 0c6 0 11-5 11-11 0-6-5-11-11-11z m0-42l-107 0c-6 0-10 4-10 10 0 6 4 11 10 11l107 0c6 0 11-5 11-11 0-6-5-10-11-10z m0-43l-107 0c-6 0-10 5-10 11 0 6 4 10 10 10l107 0c6 0 11-4 11-10 0-6-5-11-11-11z m-331 181c-2 0-5 1-7 3-2 3-3 5-3 8 0 3 1 5 3 7 4 5 11 5 15 0 2-1 3-4 3-7 0-3-1-6-3-7-2-3-5-4-8-4z m278 0c-3 0-6 1-8 3-2 2-3 5-3 8 0 3 1 6 3 7 4 5 11 5 15 0 2-1 3-4 3-7 0-3-1-6-3-7-2-3-5-4-7-4z"/>
<glyph unicode="&#116;" d="M373 299l-234 0c-6 0-11 4-11 10l0 192c0 6 5 11 11 11l234 0c6 0 11-5 11-11l0-192c0-6-5-10-11-10z m-224 21l214 0 0 171-214 0z m-32-320l-106 0c-6 0-11 5-11 11l0 85c0 6 5 11 11 11l106 0c6 0 11-5 11-11l0-85c0-6-5-11-11-11z m-96 21l86 0 0 64-86 0z m288-21l-106 0c-6 0-11 5-11 11l0 85c0 6 5 11 11 11l106 0c6 0 11-5 11-11l0-85c0-6-5-11-11-11z m-96 21l86 0 0 64-86 0z m288-21l-106 0c-6 0-11 5-11 11l0 85c0 6 5 11 11 11l106 0c6 0 11-5 11-11l0-85c0-6-5-11-11-11z m-96 21l86 0 0 64-86 0z m32 118c-6 0-10 4-10 10l0 43-342 0 0-43c0-6-4-10-10-10-6 0-11 4-11 10l0 54c0 6 5 10 11 10l362 0c6 0 11-4 11-10l0-54c0-6-5-10-11-10z m-180 0c-6 0-11 4-11 10l0 107c0 6 5 11 11 11 6 0 11-5 11-11l0-107c0-6-5-10-11-10z"/>
<glyph unicode="&#117;" d="M257 118c-23 0-136 2-149 50-1 2-1 4-1 7l0 272c0 0 0 0 0 0 0 44 81 59 150 59 69 0 149-15 149-59l0-272c0-3 0-5-1-8-13-47-126-49-148-49z m-129 329c0 0 0 0 0 0l0-272c6-21 62-36 129-36 66 0 122 15 128 35l0 273c0 21-58 38-128 38-71 0-128-17-129-38z m128-49c-84 0-146 26-149 50 0 6 5 12 11 12 5 0 9-3 10-8 4-7 45-32 128-32 84 0 126 25 130 32 0 6 6 9 11 8 6 0 10-6 9-12-3-24-65-50-150-50z m0-92c-84 0-146 27-149 50 0 6 5 12 11 12 5 0 9-3 10-7 4-8 45-33 128-33 84 0 126 25 130 32 0 6 6 9 11 9 6-1 10-7 9-13-3-23-65-50-150-50z m0-91c-84 0-146 26-149 49 0 6 5 12 11 12 5 0 9-3 10-8 0 0 0-1 0-1 3-6 44-31 128-31 84 0 126 25 130 32 0 6 6 10 11 9 6-1 10-7 9-13-3-23-65-49-150-49z m-192-173l-54 0c-5 0-10 5-10 11 0 6 5 10 10 10l54 0c6 0 10-4 10-10 0-6-4-11-10-11z m117 0l-53 0c-6 0-11 5-11 11 0 6 5 10 11 10l53 0c6 0 11-4 11-10 0-6-5-11-11-11z m203 0l-54 0c-5 0-10 5-10 11 0 6 5 10 10 10l54 0c6 0 10-4 10-10 0-6-4-11-10-11z m117 0l-53 0c-6 0-11 5-11 11 0 6 5 10 11 10l53 0c6 0 11-4 11-10 0-6-5-11-11-11z m-244 19c-6 0-11 4-11 10l0 57c0 6 5 11 11 11 6 0 10-5 10-11l0-57c0-6-4-10-10-10z m0-38c-17 0-30 13-30 29 0 17 13 30 30 30 16 0 29-13 29-30 0-16-13-29-29-29z m0 38c-5 0-8-4-8-9 0-4 3-8 8-8 4 0 8 4 8 8 0 5-4 9-8 9z"/>
<glyph unicode="&#99;" d="M256 4c-139 0-252 112-252 251 0 139 113 251 252 251 138 0 251-112 251-251 0-139-113-251-251-251z m0 481c-127 0-230-103-230-230 0-127 103-230 230-230 127 0 230 103 230 230 0 127-103 230-230 230z m85-378c-3 0-6 1-8 2-15 8-17 38-17 51 0 50-3 92-42 106-21 8-37 14-46 16-11 2-19 11-20 24-2 16 6 37 24 46 8 4 15 4 20 4 0 2-1 6-1 11-1 8-3 13-6 16-5 4-16 3-25 2-4-1-8-1-11-1-6 0-7-3-15-40l-2-7c-2-13-8-20-16-21-14-2-24 14-25 17-2 2-3 8-5 17-2-6-11-17-37-26-14-5-23-1-27 4-14 15 0 54 7 70 3 5 9 8 14 6 6-3 8-9 6-14-9-20-14-42-11-48 0 1 2 1 4 2 21 7 25 15 25 15 0 1 0 1 1 2l17 30c2 4 7 6 11 5 5-1 8-5 9-10 1-18 3-39 4-43 1-1 2-2 2-3 0 0 0 1 0 1l2 8c8 39 12 56 36 56 2 0 5 1 9 1 12 2 28 3 40-7 8-6 13-16 14-30 2-17 2-26-4-31-5-5-11-4-15-4-3 1-7 1-11-1-9-5-14-16-13-25 0-5 3-5 3-5 13-3 34-11 50-17 55-21 55-84 55-126 0-12 3-25 5-30 20 15 65 90 57 113-11 31-16 43 13 59 19 10 29 20 28 29 0 6 5 11 10 12 7 0 11-5 12-10 1-19-13-35-40-50-12-7-12-7-3-33 13-38-46-126-66-139-4-3-8-4-12-4z m-232-6c-1 0-2 1-3 1-6 2-9 8-7 13 21 60 29 69 44 82l3 3c-5 2-12 5-16 6-11 4-22 8-28 14-5 6-9 9-15 12-2 1-6 3-9 6-3-9-7-27-8-45-1-6-6-10-12-10-6 1-10 6-9 12 5 59 17 64 21 66 5 2 11 2 15-2 6-4 10-7 13-9 6-3 12-7 20-15 2-2 12-6 19-9 16-6 30-11 33-23 0-4 0-11-7-17-2-2-4-3-6-5-12-10-18-15-38-72-1-5-5-8-10-8z"/>
<glyph unicode="&#100;" d="M161 40c-15 0-27 12-27 27 0 14 12 26 27 26 15 0 27-12 27-26 0-15-12-27-27-27z m0 32c-3 0-5-3-5-5 0-6 10-6 10 0 0 2-2 5-5 5z m-1-69c-39 0-72 32-72 71l17 231c-22 14-70 52-70 100 0 41 21 79 56 102 3 2 7 2 11 1 3-2 5-6 5-10l0-70 26-38 54 0 26 38 0 70c0 4 2 8 6 10 3 1 7 1 11-1 35-23 55-61 55-102 0-48-47-86-69-100l16-231c0-39-32-71-72-71z m-74 473c-19-19-30-44-30-71 0-42 50-76 65-85 4-3 6-6 5-10l-16-237c0-26 22-49 50-49 28 0 51 23 51 50l-17 236c0 4 2 7 5 10 15 9 65 43 65 85 0 27-11 52-29 71l-1-51c0-2 0-4-1-6l-31-45c-2-3-5-5-9-5l-66 0c-3 0-7 2-9 5l-30 45c-1 2-2 4-2 6z m288-474c-41 0-75 28-75 63l0 120c0 5 2 8 6 10 8 4 13 10 13 16 0 7-5 13-13 17-4 1-6 5-6 9l0 45c0 6 5 10 10 10l130 0c6 0 11-4 11-10l0-45c0-4-3-8-6-9-8-4-13-10-13-17 0-6 5-12 13-16 3-2 6-5 6-10l0-120c0-35-34-63-76-63z m-54 177l0-114c0-23 24-41 54-41 30 0 54 18 54 41l0 114c-11 8-19 20-19 32 0 13 8 25 19 33l0 27-108 0 0-27c12-8 19-20 19-33 0-12-7-24-19-32z m54 92c-6 0-10 5-10 11l0 164c0 6 4 11 10 11 6 0 11-5 11-11l0-164c0-6-5-11-11-11z m13 165l-26 0c-4 0-8 3-10 7l-10 32c-1 2 0 5 1 7l10 24c1 3 5 6 9 6l26 0c4 0 8-3 10-6l10-24c1-2 1-5 0-7l-10-32c-1-4-5-7-10-7z m-18 21l10 0 7 20-6 14-12 0-5-14z m5-401c-6 0-10 5-10 11l0 100c0 6 4 10 10 10 6 0 11-4 11-10l0-100c0-6-5-11-11-11z"/>
<glyph unicode="&#101;" d="M170 100c-38 0-69 31-69 69 0 38 31 69 69 69 38 0 69-31 69-69 0-38-31-69-69-69z m0 116c-26 0-47-21-47-47 0-26 21-48 47-48 26 0 47 22 47 48 0 26-21 47-47 47z m0-215c-8 0-15 1-23 2-5 1-9 4-9 9l-5 36c-8 2-15 5-23 9l-28-22c-4-3-9-3-13 0-12 9-23 21-33 33-3 4-3 9 0 13l22 28c-4 7-7 15-9 23l-36 5c-4 0-8 4-9 9-2 15-2 31 0 46 1 5 5 8 9 9l36 5c2 8 5 15 9 23l-22 28c-3 4-3 9 0 13 10 12 21 23 33 33 4 2 9 2 13 0l28-22c8 4 15 7 23 9l5 36c0 4 4 8 9 9 16 2 30 2 46 0 5-1 9-5 9-9l5-36c8-2 15-5 23-9l28 21c4 3 9 3 13 1 12-10 23-21 33-33 3-4 3-9 0-13l-22-29c4-7 7-14 9-22l36-5c5-1 8-4 9-9 2-16 2-31 0-46-1-5-4-9-9-9l-36-5c-2-8-5-15-9-23l22-28c3-4 3-9 0-13-10-12-21-23-33-33-4-3-9-3-13 0l-28 22c-8-4-15-7-23-9l-5-36c0-5-4-8-9-9-8-1-15-2-23-2z m-12 22c8 0 16 0 24 0l5 34c0 5 4 8 8 9 11 3 21 7 30 13 4 2 9 2 12-1l27-21c7 6 12 11 18 17l-21 28c-3 3-3 8-1 12 6 9 10 19 13 30 1 4 4 8 9 8l34 5c0 8 0 16 0 24l-34 5c-5 0-8 3-9 8-3 10-7 20-13 30-2 4-2 8 1 12l21 27c-6 6-11 12-18 17l-27-21c-3-2-8-3-12 0-9 6-20 10-30 12-4 1-8 5-8 9l-5 35c-8 0-16 0-24 0l-5-35c0-4-3-8-8-9-10-2-21-6-30-12-4-2-8-2-12 0l-27 21c-7-5-12-11-18-17l21-27c3-4 3-8 1-12-6-10-10-20-12-30-2-5-5-8-9-9l-35-4c0-8 0-16 0-24l35-5c4 0 7-4 9-8 2-11 6-21 12-30 2-4 2-9-1-12l-21-28c6-6 11-12 18-17l27 21c4 3 8 3 12 1 9-6 20-10 30-13 5-1 8-4 8-9z m231 318c-27 0-48 22-48 49 0 26 21 48 48 48 27 0 49-22 49-48 0-27-22-49-49-49z m0 76c-15 0-27-12-27-27 0-15 12-27 27-27 15 0 27 12 27 27 0 15-12 27-27 27z m-28-148c-1 0-2 0-2 1-12 3-22 7-32 13-4 2-6 7-5 12l6 23c-4 3-7 6-10 10l-23-6c-5-2-10 0-12 4-6 10-11 21-14 32-1 5 1 10 5 12l21 12c0 5 0 10 0 15l-21 11c-4 3-6 8-5 12 3 11 7 22 13 32 2 4 7 6 12 5l23-6c3 4 7 7 10 10l-6 23c-1 5 1 10 5 12 10 6 21 11 31 13 5 2 10 0 12-4l12-21c5 0 10 0 15 0l12 21c2 4 7 6 12 5 11-3 21-7 31-13 5-3 7-8 5-12l-6-23c4-3 7-7 11-11l23 7c4 1 9-1 12-5 6-10 10-21 13-32 1-4-1-9-5-12l-21-12c1-4 1-9 0-14l21-12c4-2 6-7 5-12-3-11-7-22-13-32-2-4-7-6-12-5l-23 7c-3-4-6-8-10-11l6-23c1-4-1-9-5-12-9-6-20-10-31-13-5-1-10 1-12 5l-12 21c-5-1-10-1-15-1l-12-20c-2-4-5-6-9-6z m-16 28c3-2 7-3 11-4l11 19c2 4 7 6 11 5 8-1 15-1 23 1 4 0 8-2 11-6l11-19c4 1 8 3 11 5l-6 21c-1 5 1 9 4 12 7 4 12 10 16 16 3 3 7 5 12 4l22-6c1 4 3 8 4 12l-19 11c-4 2-6 6-6 11 2 7 2 15 0 22 0 5 2 9 5 11l20 12c-1 3-3 7-5 11l-22-6c-4-1-8 0-11 4-4 6-10 12-16 16-4 3-5 7-4 11l6 22c-4 2-8 3-12 5l-11-20c-2-4-6-6-11-5-7 1-15 1-23 0-4-1-8 1-10 5l-12 19c-4-1-7-2-11-4l6-22c1-4-1-9-4-11-6-5-12-10-16-16-3-4-7-6-12-5l-21 6c-2-4-4-7-5-11l20-11c3-3 5-7 5-11-1-8-1-15 0-23 1-4-1-9-5-11l-20-11c2-4 3-8 5-12l22 6c4 1 9 0 11-4 5-6 10-11 16-16 4-2 6-7 4-11z"/>
<glyph unicode="&#102;" d="M256 157c-55 0-99 44-99 99 0 54 44 99 99 99 55 0 99-45 99-99 0-55-44-99-99-99z m0 177c-43 0-78-35-78-78 0-43 35-78 78-78 43 0 78 35 78 78 0 43-35 78-78 78z m0-328c-11 0-23 1-34 3-5 0-9 4-10 9l-7 57c-14 4-28 10-40 17l-46-35c-4-3-10-3-13-1-19 14-35 31-49 49-3 4-3 9 0 13l35 46c-7 13-12 27-16 41l-58 7c-5 1-9 4-9 9-3 23-3 46 0 69 0 5 4 9 9 9l58 8c4 14 9 27 16 40l-35 46c-3 4-3 9 0 13 14 18 30 35 49 49 3 3 9 3 13 0l46-36c12 8 26 13 40 17l7 58c1 4 5 8 10 9 23 3 45 3 69 0 4-1 8-5 9-9l7-58c14-4 28-10 40-17l46 36c4 3 10 3 13 0 19-14 35-31 49-49 3-4 3-9 0-13l-35-46c7-13 12-26 16-40l58-8c5 0 8-4 9-9 3-23 3-45 0-69-1-5-4-8-9-9l-58-7c-4-14-9-28-16-41l35-46c3-4 3-9 0-13-14-18-30-35-49-48-3-3-9-3-13 0l-46 35c-12-7-26-13-40-17l-7-57c-1-5-5-9-9-9-12-2-24-3-35-3z m-23 23c15-2 31-2 47 0l7 56c1 5 4 8 8 9 17 4 33 11 48 20 3 2 8 2 12-1l45-34c12 9 23 21 33 33l-35 45c-2 4-3 8 0 12 9 15 15 31 19 48 1 4 5 7 9 8l57 7c2 16 2 31 0 47l-57 8c-4 0-7 3-9 8-4 16-10 32-19 47-3 4-2 9 0 12l35 46c-10 12-21 23-33 33l-45-35c-4-3-9-3-12-1-15 9-31 16-48 20-4 1-7 5-8 9l-7 57c-16 1-32 1-47 0l-8-57c0-4-4-8-8-9-17-4-33-10-48-20-3-2-8-2-12 1l-45 35c-12-10-23-21-33-33l35-46c2-3 3-8 0-12-9-14-16-30-20-47-1-5-4-8-9-8l-56-8c-2-15-2-31 0-47l56-7c5-1 8-4 9-8 4-17 11-33 20-48 3-4 2-9 0-12l-35-45c10-12 21-24 33-33l45 34c4 3 9 3 12 1 15-9 31-16 48-20 4-1 8-4 8-9z"/>
<glyph unicode="&#103;" d="M363 235l-214 0c-6 0-10 4-10 10 0 6 4 11 10 11l214 0c6 0 10-5 10-11 0-6-4-10-10-10z m-15-235l-184 0c-11 0-20 9-20 19 0 2 1 3 1 5l5 8c11 24 25 53 67 53l78 0c43 0 56-29 68-53l4-9c0-1 1-3 1-5 0-10-9-18-20-18z m-180 21l176 0-1 2c-10 22-19 41-48 41l-78 0c-28 0-38-19-48-41z m299 128l-422 0c-26 0-45 19-45 44l0 272c0 26 20 47 45 47l422 0c25 0 45-21 45-47l0-272c0-25-19-44-45-44z m-422 342c-13 0-24-12-24-26l0-272c0-14 10-22 24-22l422 0c14 0 24 8 24 22l0 272c0 14-11 26-24 26z m211-427c-6 0-11 5-11 11l0 42c0 6 5 11 11 11 6 0 11-5 11-11l0-42c0-6-5-11-11-11z m0 213c-47 0-85 38-85 85 0 47 38 85 85 85 47 0 85-38 85-85 0-47-38-85-85-85z m0 149c-35 0-64-29-64-64 0-35 29-64 64-64 35 0 64 29 64 64 0 35-29 64-64 64z m-12-104c-3 0-5 1-8 3-4 4-4 11 0 15l46 49c4 4 10 5 15 1 4-4 4-11 0-16l-45-48c-3-2-5-4-8-4z m0 0c-3 0-6 2-8 4l-21 22c-4 5-4 11 0 15 5 4 11 4 15 0l22-23c4-4 3-11-1-15-2-2-5-3-7-3z"/>
<glyph unicode="&#104;" d="M141 52c-1 0-2 0-4 0-4 2-6 6-6 10l0 107-31 0c-51 0-93 42-93 93 0 30 20 61 50 79 10 70 65 120 132 120 32 0 59-11 85-34 54 10 105-24 117-74 59 9 114-36 114-91 0-50-45-93-97-93l-149 0-110-114c-2-2-5-3-8-3z m48 388c-58 0-105-45-111-107-1-4-3-7-6-9-25-13-43-39-43-62 0-35 27-72 71-72l42 0c3 0 6-1 8-3 2-2 3-4 3-7l-1-91 95 98c2 2 4 3 7 3l154 0c40 0 76 34 76 72 0 33-31 71-77 71-7 0-15-1-22-3-3-1-6-1-9 1-2 2-4 4-4 8-6 46-51 78-99 66-3-1-7 0-10 3-23 21-46 32-74 32z"/>
<glyph unicode="&#112;" d="M276 131c-7 0-13 2-17 7l-124 123c-9 10-9 25 0 34l208 208c9 9 25 9 34 0l124-124c9-9 9-24 0-34l-208-207c-5-5-11-7-17-7z m74 365l8-8-208-208c-1-1-1-2 0-3l126-125c0 0 1 0 2 1l207 208c1 1 1 2 0 3l-123 124z m-211-227c-5 0-9 3-11 8-1 6 3 12 9 13l172 39 39 173c1 5 7 9 13 8 6-1 9-7 8-13l-40-179c-1-4-4-7-8-8l-180-41c-1 0-1 0-2 0z m-126-165c-3 0-6 1-8 3-4 4-4 11 0 15l105 104c4 5 11 5 15 0 4-4 4-10 0-15l-105-104c-2-2-4-3-7-3z m78-10c-3 0-5 1-7 3-4 5-4 11 0 15l70 71c4 4 11 4 15 0 4-5 4-11 0-16l-70-70c-2-2-5-3-8-3z m79-9c-3 0-5 1-7 3-4 5-4 11 0 16l35 35c4 4 11 4 15 0 4-5 4-11 0-15l-35-36c-2-2-5-3-8-3z"/>
<glyph unicode="&#118;" d="M483 21l-453 0c-16 0-30 13-30 27l0 272c0 8 5 16 12 22l228 163c10 7 23 7 33 0l227-163c8-6 12-14 12-22l0-272c0-13-11-27-29-27z m-226 468c-2 0-3 0-4-1l-228-164c-3-1-4-3-4-4l0-272c0-2 4-5 9-5l453 0c5 0 8 4 8 5l0 272c0 1-2 3-3 4l-228 164c-1 1-2 1-3 1z m-1-314c-1 0-3 0-5 1l-246 132c-5 3-7 10-4 15 3 5 9 7 15 4l240-130 239 130c5 3 12 1 15-4 3-5 1-12-5-15l-243-132c-2-1-4-1-6-1z"/>
<glyph unicode="&#119;" d="M406 90c-1 0-3 1-4 1l-388 121c-6 2-10 7-11 14 0 6 3 12 9 15l476 243c5 3 12 2 16-1 5-4 7-10 6-16l-88-365c-1-4-4-8-8-10-2-1-5-2-8-2z m-372 138l368-115 84 347z m189-224c-2 0-4 1-5 2-4 2-8 6-7 13l0 141c0 6 5 11 10 11 6 0 11-5 11-11l0-117 67 94c3 5 10 6 15 3 4-4 6-10 2-15l-80-114c-4-6-9-7-13-7z m-2 145c-2 0-5 1-7 3-4 4-4 11-1 15l175 195c4 4 11 5 15 1 4-4 5-11 1-15l-175-195c-2-2-5-4-8-4z"/>
<glyph unicode="&#120;" d="M254 216c-11 0-22 3-30 11l-170 152c-4 4-4 11 0 15 4 4 10 5 15 1l169-152c9-8 23-8 31 0l170 152c4 4 11 4 15-1 4-4 3-11-1-15l-169-152c-9-8-20-11-30-11z m192-102c-3 0-5 1-7 3l-113 94c-5 4-6 10-2 15 4 5 11 5 15 1l114-94c4-4 5-10 1-15-2-2-5-4-8-4z m-384 0c-3 0-6 2-9 4-3 5-3 11 2 15l113 94c5 4 11 4 15-1 4-5 3-11-1-15l-114-94c-2-2-4-3-6-3z m389-50l-390 0c-34 0-61 26-61 59l0 265c0 34 27 60 61 60l390 0c34 0 61-27 61-60l0-265c0-32-27-59-61-59z m-390 363c-22 0-40-17-40-39l0-265c0-21 18-38 40-38l390 0c22 0 40 17 40 38l0 265c0 22-18 39-40 39z"/>
<glyph unicode="&#121;" d="M254 216c-11 0-22 3-30 11l-169 152c-5 4-5 11-1 15 4 4 10 5 15 1l169-152c9-8 23-8 32 0l169 152c4 4 11 4 15-1 4-4 3-11-1-15l-169-152c-9-8-19-11-30-11z m-192-102c-3 0-6 2-9 4-3 5-3 11 2 15l113 94c5 4 11 4 15-1 4-5 3-11-1-15l-114-94c-1-2-4-3-6-3z m388-50c-6 0-11 5-11 11 0 6 5 10 11 10 22 0 41 18 41 38l0 265c0 22-18 39-40 39l-390 0c-22 0-40-17-40-39l0-265c0-21 18-38 40-38l202 0c6 0 10-4 10-10 0-6-4-11-10-11l-202 0c-34 0-61 26-61 59l0 265c0 34 27 60 61 60l390 0c34 0 61-27 61-60l0-265c0-32-28-59-62-59z m-94-60c-62 0-113 50-113 113 0 62 51 113 113 113 63 0 113-51 113-113 0-63-50-113-113-113z m0 205c-50 0-92-42-92-92 0-51 42-92 92-92 51 0 92 41 92 92 0 50-41 92-92 92z m-17-143c-2 0-5 1-7 3l-24 22c-5 4-5 11-1 15 4 5 11 5 15 1l18-16 59 52c5 4 12 3 15-1 4-4 4-11-1-15l-67-58c-2-2-4-3-7-3z"/>
<glyph unicode="&#122;" d="M254 216c-11 0-22 3-30 11l-169 152c-5 4-5 11-1 15 4 4 10 5 15 1l169-152c9-8 23-8 32 0l169 152c4 4 11 4 15-1 4-4 3-11-1-15l-169-152c-9-8-19-11-30-11z m-192-102c-3 0-6 2-8 4-4 5-4 11 1 15l113 94c5 4 11 4 15-1 4-5 3-11-1-15l-113-94c-2-2-5-3-7-3z m140-50l-141 0c-34 0-61 26-61 59l0 265c0 34 27 60 61 60l390 0c34 0 61-27 61-60l0-265c0-25-15-47-39-56-6-2-12 1-14 7-1 5 1 12 7 13 15 6 25 20 25 36l0 265c0 22-18 39-40 39l-390 0c-22 0-40-17-40-39l0-265c0-21 18-38 40-38l141 0c6 0 11-4 11-10 0-6-5-11-11-11z m172 19c-6 0-10 5-10 11l0 25c0 1 0 13-8 19-8 5-22 5-40-2-6-2-12 1-14 7-2 5 1 11 7 13 26 10 46 9 60-1 17-13 16-35 16-36l0-25c0-6-5-11-11-11z m-33-77c-57 0-104 46-104 103 0 57 47 103 104 103 53 0 98-39 104-91 2-20-4-38-15-51-9-9-20-14-33-14-13 0-20 5-24 10-1 1-2 2-3 3-10-8-25-13-38-13 0 0 0 0 0 0-21 0-35 12-38 33-1 15 5 24 11 29 21 18 67 5 72 4 6-2 9-7 8-13-1-3-3-5-5-6 3-2 5-6 5-10 0-2 0-9 3-13 1-1 3-3 9-3 7 0 13 3 17 8 7 8 11 20 9 34-4 41-40 72-82 72-45 0-82-37-82-82 0-45 37-82 82-82 18 0 35 6 49 16 5 3 12 2 15-2 4-5 3-12-2-15-18-13-39-20-62-20z m-3 100c-8 0-16-1-20-5-1-1-3-3-2-10 0-6 3-14 16-14 0 0 0 0 0 0 15 0 31 11 32 18 0 3 2 6 4 7-9 2-20 4-30 4z"/>
<glyph unicode="&#65;" d="M193-1l-87 0c-9 0-16 7-16 15l5 37c1 6 7 10 13 9 5-1 9-6 8-12l-4-27 75 0-5 27c-1 6 3 11 9 12 6 1 11-3 12-9l6-35c0-10-7-17-16-17z m75 65l-237 0c-17 0-30 14-30 30l0 153c0 17 13 31 30 31l237 0c17 0 30-14 30-31l0-153c0-16-13-30-30-30z m-237 193c-5 0-9-5-9-10l0-153c0-5 4-9 9-9l237 0c5 0 9 4 9 9l0 153c0 5-4 10-9 10z m187-258l-138 0c-6 0-11 5-11 11 0 6 5 11 11 11l138 0c6 0 11-5 11-11 0-6-5-11-11-11z m283 1l-170 0c-6 0-11 5-11 11l0 490c0 6 5 11 11 11l170 0c6 0 11-5 11-11l0-490c0-6-5-11-11-11z m-160 21l150 0 0 470-150 0z m118 278l-87 0c-5 0-10 4-10 10 0 6 5 11 10 11l87 0c5 0 10-5 10-11 0-6-5-10-10-10z m-87-86c-2 0-5 1-7 4-2 1-3 4-3 7 0 3 1 6 3 8 4 4 11 4 15 0 2-2 3-5 3-8 0-3-1-6-3-7-2-3-5-4-8-4z m43 0c-3 0-5 1-8 4-1 1-3 4-3 7 0 3 2 6 3 7 5 5 11 5 16 1 2-2 3-5 3-8 0-3-1-6-3-7-3-3-5-4-8-4z m44 128l-87 0c-5 0-10 5-10 11 0 6 5 11 10 11l87 0c5 0 10-5 10-11 0-6-5-11-10-11z m0 43l-87 0c-5 0-10 5-10 11 0 6 5 10 10 10l87 0c5 0 10-4 10-10 0-6-5-11-10-11z m0 43l-87 0c-5 0-10 4-10 10 0 6 5 11 10 11l87 0c5 0 10-5 10-11 0-6-5-10-10-10z"/>
<glyph unicode="&#66;" d="M415 23c-3 0-5 1-7 3l-84 74-28 0c-44 0-84 29-101 74-3 5 0 11 6 13 5 3 11 0 13-6 15-36 47-60 82-60l32 0c3 0 5-1 7-2l69-62 0 55c0 5 4 10 9 11 42 8 73 49 73 97 0 55-40 100-89 100l-26 0c-6 0-11 4-11 10 0 6 5 11 11 11l26 0c61 0 111-54 111-121 0-55-34-102-82-116l0-70c0-5-3-8-7-10-1-1-3-1-4-1z m-27 144c-3 0-6 1-8 3l-54 55c-4 4-4 11 0 15 4 4 11 4 15 0l54-55c5-4 5-10 0-15-2-2-4-3-7-3z m-82 0c-2 0-5 1-7 3-4 5-4 11 0 15l81 83c4 4 11 4 15 0 5-5 5-11 0-15l-81-83c-2-2-5-3-8-3z m-210-36c-1 0-3 0-4 1-4 1-7 5-7 9l0 76c-51 14-87 65-87 124 0 70 52 128 117 128l107 0c65 0 117-58 117-128 0-71-52-128-117-128l-29 0-90-80c-2-1-4-2-7-2z m19 316c-53 0-96-48-96-106 0-52 33-96 79-105 5-1 9-6 9-11l0-60 74 66c2 2 5 3 8 3l33 0c53 0 96 48 96 107 0 59-43 106-96 106l-107 0z m29-165c-2 0-5 1-7 3-4 4-4 11 0 15l84 91c4 4 11 4 15 0 4-4 5-10 1-15l-85-91c-2-2-5-3-8-3z m0 0c-2 0-5 1-7 3l-40 43c-4 4-3 11 1 15 4 4 11 3 15-1l39-42c4-4 4-11 0-15-2-2-5-3-8-3z"/>
<glyph unicode="&#67;" d="M335-1l-158 0c-11 0-21 9-21 19l11 65c1 6 6 10 12 9 6-1 10-6 9-12l-10-59 156 0-10 59c-1 6 3 11 9 12 6 1 11-3 12-9l10-63c1-12-9-21-20-21z m132 129l-422 0c-25 0-45 20-45 46l0 293c0 25 20 45 45 45l422 0c25 0 45-20 45-45l0-293c0-26-20-46-45-46z m-422 363c-13 0-24-11-24-24l0-293c0-14 11-25 24-25l422 0c13 0 24 11 24 25l0 293c0 13-11 24-24 24z m456-299l-490 0c-6 0-11 5-11 11 0 6 5 10 11 10l490 0c6 0 11-4 11-10 0-6-5-11-11-11z"/>
<glyph unicode="&#68;" d="M335-1l-158 0c-11 0-21 9-21 19l11 65c1 6 6 10 12 9 6-1 10-6 9-12l-10-59 156 0-10 59c-1 6 3 11 9 12 6 1 11-3 12-9l11-63c0-12-10-21-21-21z m132 129l-422 0c-25 0-45 20-45 46l0 293c0 25 20 45 45 45l422 0c25 0 45-20 45-45l0-293c0-26-20-46-45-46z m-422 363c-13 0-24-11-24-24l0-293c0-14 11-25 24-25l422 0c13 0 24 11 24 25l0 293c0 13-11 24-24 24z m456-299l-490 0c-6 0-11 5-11 11 0 6 5 10 11 10l490 0c6 0 11-4 11-10 0-6-5-11-11-11z m-159 64l-154 0c-28 0-51 18-58 44-7 23 2 47 24 62 8 37 40 64 78 64 17 0 34-5 48-16 29 2 53-12 63-36 34-1 62-27 62-59 0-32-29-59-63-59z m-110 149c-25 0-53-18-58-51-1-3-2-6-5-7-16-10-23-26-19-41 4-14 17-28 38-28l154 0c23 0 42 17 42 37 0 22-22 40-47 38-5-1-9 2-11 7-5 15-21 32-48 28-3 0-6 1-9 3-10 9-23 14-37 14z"/>
<glyph unicode="&#69;" d="M303 256l-158 0c-9 0-17 8-17 17l0 21c0 7 5 14 11 16 39 15 50 23 54 26l0 1c-5 6-9 13-12 21-4 4-6 9-7 14-1 6 0 11 3 16l0 16c0 27 18 44 47 44 29 0 47-16 47-44l0-16c3-5 4-10 3-16-1-5-3-10-7-14-3-8-7-15-11-21l0-2c2-1 12-9 53-25 6-2 11-9 11-16l0-21c0-9-8-17-17-17z m-153 21l148 0 0 14c-49 20-60 29-63 38-1 1-1 2-1 3l0 9c0 3 1 5 3 7 5 5 8 12 10 19 1 3 3 5 5 6 0 1 1 1 1 2 0 1 0 2-1 3-1 2-2 4-2 7l0 19c0 16-8 23-26 23-17 0-26-7-26-23l0-19c0-3 0-5-2-7-1-1-1-2-1-3 0-1 1-1 2-2 2-1 3-3 4-6 2-7 5-14 10-19 2-2 3-4 3-7l0-9c0-1 0-2-1-3-2-7-9-16-63-38z m240-21l-43 0c-6 0-10 5-10 11 0 6 4 10 10 10l37 0 0 6c-38 15-47 22-50 30 0 1 0 2 0 3l0 6c0 3 1 6 3 8 3 3 6 8 7 13 0 1 1 1 1 2 1 4 1 16 1 24 0 8-2 15-18 15-15 0-17-8-17-14 0-10 0-21 1-25 2-3 2-8-1-11-3-5-10-6-15-3-4 3-7 5-6 39 0 22 15 35 38 35 24 0 39-13 39-35 1-23-1-32-3-36-2-5-5-11-8-15 2-2 12-7 39-17 6-2 10-8 10-15l0-16c0-8-7-15-15-15z m-55-257l-157 0c-12 0-21 9-21 19l10 65c1 6 6 10 12 9 6-1 10-6 9-12l-10-59 156 0-10 59c-1 6 3 11 9 12 6 1 11-3 12-9l11-63c0-12-10-21-21-21z m132 129l-421 0c-25 0-46 20-46 46l0 293c0 25 20 45 46 45l421 0c25 0 45-20 45-45l0-293c0-26-20-46-45-46z m-421 363c-14 0-24-11-24-24l0-293c0-14 10-25 24-25l421 0c13 0 24 11 24 25l0 293c0 13-11 24-24 24z m456-299l-491 0c-6 0-11 5-11 11 0 6 5 10 11 10l491 0c5 0 10-4 10-10 0-6-5-11-10-11z"/>
<glyph unicode="&#70;" d="M459 149c-6 0-11 5-11 11l0 241c0 3-2 5-4 5l-376 0c-2 0-4-2-4-5l0-241c0-6-5-11-11-11-6 0-11 5-11 11l0 241c0 14 12 26 26 26l376 0c14 0 26-12 26-26l0-241c0-6-5-11-11-11z m25-86l-456 0c-15 0-28 13-28 28l0 26c0 6 5 10 11 10l219 0c5 0 10-4 10-10l0-7 33 2-1 5c0 6 5 10 10 10l219 0c6 0 11-4 11-10l0-26c0-15-13-28-28-28z m-463 43l0-15c0-3 3-6 7-6l456 0c4 0 7 3 7 6l0 15-198 0c-2-9-10-16-20-16l-34 0c-10 0-18 7-20 16z m304 86l-138 0c-9 0-16 7-16 16l0 19c0 7 4 13 10 15 33 13 43 19 46 22l0 0c-4 5-8 12-10 19-3 3-5 8-6 13-1 5 0 10 2 14l0 14c0 25 17 40 43 40 27 0 42-15 42-40l0-14c3-4 4-9 3-14-1-5-3-10-6-13-3-7-6-14-10-19l0-1c2-1 11-7 46-21 6-2 10-8 10-15l0-19c0-9-7-16-16-16z m-133 21l128 0 0 11c-43 17-53 25-56 33 0 1 0 2 0 4l0 7c0 3 1 6 3 8 3 3 6 9 8 16 1 2 2 4 4 6-1 2-2 6-2 9l0 17c0 13-6 19-21 19-14 0-21-6-21-19l0-17c0-3-1-5-3-7 2-1 4-6 5-8 2-7 5-13 8-16 2-2 3-5 3-8l0-7c0-2 0-3 0-4-3-8-13-16-56-33l0-11z"/>
<glyph unicode="&#71;" d="M459 149c-6 0-10 5-10 11l0 241c0 3-2 5-5 5l-376 0c-2 0-4-2-4-5l0-241c0-6-5-11-11-11-6 0-11 5-11 11l0 241c0 14 12 26 26 26l376 0c14 0 26-12 26-26l0-241c0-6-5-11-11-11z m25-86l-456 0c-15 0-28 13-28 28l0 26c0 6 5 10 11 10l219 0c6 0 10-4 10-10l0-7 33 2-1 5c0 6 5 10 11 10l218 0c6 0 11-4 11-10l0-26c0-15-12-28-28-28z m-462 43l0-15c0-3 2-6 6-6l456 0c4 0 7 3 7 6l0 15-198 0c-2-9-10-16-20-16l-34 0c-10 0-18 7-19 16z m109 153c-14 0-25 11-25 25 0 14 11 25 25 25 14 0 25-11 25-25 0-14-11-25-25-25z m0 28c-2 0-3-1-3-3 0-4 6-4 6 0 0 2-1 3-3 3z m83 25c-14 0-25 11-25 24 0 14 11 25 25 25 14 0 25-11 25-25 0-13-11-24-25-24z m0 27c-2 0-3-1-3-3 0-3 6-3 6 0 0 2-1 3-3 3z m83-154c-14 0-25 11-25 25 0 13 11 24 25 24 14 0 25-11 25-24 0-14-11-25-25-25z m0 28c-2 0-3-2-3-3 0-4 6-4 6 0 0 1-1 3-3 3z m83 61c-14 0-25 11-25 25 0 14 11 25 25 25 14 0 25-11 25-25 0-14-11-25-25-25z m0 28c-2 0-3-1-3-3 0-4 7-4 7 0 0 2-2 3-4 3z m-237-21c-4 0-7 2-9 5-3 5-2 11 3 15l57 35c5 4 12 2 15-3 3-5 2-12-3-15l-57-36c-2-1-4-1-6-1z m146-70c-3 0-6 1-9 4l-67 104c-3 5-2 11 3 14 5 4 11 2 15-3l67-103c4-5 2-11-3-15-2-1-4-1-6-1z m18-2c-3 0-6 1-8 3-4 4-4 11 0 15l64 69c4 4 10 4 15 0 4-4 4-10 0-15l-64-68c-2-3-5-4-7-4z"/>
<glyph unicode="&#72;" d="M299 23c-48 0-95 10-145 32-11 6-38-2-66-9-8-3-17-5-26-7-20-5-40 6-45 25l-2 7c-8 27-12 43-10 51 3 16 15 27 30 30l13 2c44 7 136 22 189 7l117-34c8-2 14-6 18-11l83 37c13 6 26 5 37-3 11-7 17-21 16-35-2-12-10-23-22-28-24-11-44-20-60-28-76-35-79-36-127-36z m-155 55c7 0 14-1 19-3 47-21 92-31 136-31 43 0 43 0 118 34 16 8 36 17 60 28 6 2 9 6 9 12 1 5-2 12-7 15-4 3-9 3-16 1l-83-38c1-5 0-10-1-14-5-18-22-32-46-25l-123 35c-6 2-9 8-7 13 1 6 7 9 13 8l123-36c11-3 17 4 19 11 1 2 1 6 1 9-1 0-1 0-1 1 0 1-1 1-1 2-1 3-4 5-9 7l-117 34c-48 14-137-1-179-8l-13-3c-7-1-12-5-13-12-1-6 7-32 10-41l2-7c2-8 10-13 19-11 9 3 17 5 26 7 24 7 45 12 61 12z m186 117c-86 0-156 70-156 156 0 86 70 156 156 156 86 0 156-70 156-156 0-86-70-156-156-156z m0 291c-74 0-134-61-134-135 0-74 60-134 134-134 74 0 135 60 135 134 0 74-61 135-135 135z m49-224c-2 0-4 0-7 1-9 6-12 21-12 34l0 6c0 15 0 17-5 38l-9 10c-9 3-25 9-33 11-8 2-14 9-15 18-1 10 4 25 17 31 3 1 6 2 8 2 0 1 0 2 0 2 0 4-1 6-2 6-1 1-7 1-11 0-2 0-5 0-7 0 0-1-2-10-4-20l-1-4c-2-11-8-15-13-15-11-2-18 9-19 12 0 0-1 1-1 2-4-4-9-7-17-10-12-4-18 1-21 4-9 10-3 30 3 45 3 5 9 8 14 6 6-3 8-9 6-14-3-7-5-14-6-19 7 3 8 5 8 5l11 18c2 4 7 6 11 5 5-1 8-5 8-9 1-1 1-2 1-3 3 11 8 18 20 18 2 0 3 0 5 0 7 1 18 3 27-4 5-5 8-12 9-21 1-10 1-17-4-22-4-4-9-3-12-3-2 0-2 0-4 0-4-2-5-8-5-10 10-2 34-11 37-12 1-1 3-2 4-3l12-14c2-1 2-3 3-4 6-26 7-29 7-46l0-6c0-3 0-6 0-9 12 14 29 46 26 55-6 18-10 28 10 39 11 6 14 11 14 13-1 6 4 11 10 11 6 1 11-4 11-10 1-12-8-23-25-33-2-1-3-1-4-2 1-2 3-7 4-11 9-25-27-77-40-85-3-2-6-3-9-3z m-133-3c-1 0-2 0-3 0-6 2-9 8-7 14 10 30 16 38 23 45-1 0-2 1-3 1-6 3-13 5-17 9-3 3-5 4-8 6 0 0 0 0 0 0-1-5-2-12-3-19 0-6-5-10-12-9-5 0-10 5-9 11 3 37 11 40 15 42 4 2 9 1 13-2 3-2 5-4 7-5 4-2 7-4 12-9 1-1 7-3 10-4 10-4 19-8 21-17 1-3 1-8-5-14l-4-3c-6-5-9-8-20-39-1-5-5-7-10-7z"/>
<glyph unicode="&#73;" d="M122 0l-97 0c-15 0-26 11-26 25l0 77c0 14 12 26 26 26l97 0c14 0 26-12 26-26l0-77c0-14-11-25-26-25z m-97 107c-3 0-5-3-5-5l0-77c0-2 2-4 5-4l97 0c3 0 5 2 5 4l0 77c0 2-2 5-5 5z m268-107l-98 0c-14 0-26 11-26 25l0 205c0 14 12 26 26 26l98 0c14 0 26-12 26-26l0-205c0-14-12-25-26-25z m-98 235c-2 0-4-3-4-5l0-205c0-2 2-4 4-4l98 0c2 0 4 2 4 4l0 205c0 2-2 5-4 5z m269-235l-98 0c-14 0-26 11-26 25l0 418c0 14 12 26 26 26l98 0c14 0 25-12 25-26l0-418c0-14-11-25-25-25z m-98 448c-2 0-5-2-5-5l0-418c0-2 3-4 5-4l98 0c2 0 4 2 4 4l0 418c0 3-2 5-4 5z m-335-213c-3 0-6 1-8 3-4 5-4 11 0 15l191 192c5 4 11 4 16 0 4-5 4-11 0-15l-192-192c-2-2-4-3-7-3z m193 96c-6 0-11 4-11 10l0 86-85 0c-6 0-11 4-11 10 0 6 5 11 11 11l96 0c6 0 10-5 10-11l0-96c0-6-4-10-10-10z"/>
<glyph unicode="&#74;" d="M368 98c-1 0-2 0-4 0l-31 14c-5 2-8 8-5 14 2 5 8 8 14 5l22-9 9 15-65 188c-2 6 1 12 6 14 6 2 12-1 14-7l66-192c1-3 1-6 0-9l-16-28c-2-3-6-5-10-5z m-148 306c-4 0-8 2-10 5-25 45-29 73-13 86 21 11 40 16 60 16 33 0 54-16 55-16 17-13 13-41-12-85-2-4-7-6-11-6-22 4-45 4-68 0 0 0-1 0-1 0z m37 85c-16 0-32-4-48-12-2-2-1-17 16-51 20 3 40 3 60 1 17 33 17 48 15 51 0 0-17 11-43 11z m0-487c-3 0-6 1-8 3l-59 59c-2 3-3 6-3 9l30 314c0 5 5 10 11 9 6 0 10-6 10-11l-29-309 48-48 44 48-29 309c-1 6 4 11 10 12 5 1 11-4 11-10l30-314c0-3-1-6-3-8l-55-60c-2-2-5-3-8-3 0 0 0 0 0 0z"/>
<glyph unicode="&#75;" d="M43 233c-19 0-35 16-35 35 0 19 16 34 35 34 19 0 35-15 35-34 0-19-16-35-35-35z m0 48c-7 0-13-6-13-13 0-8 6-14 13-14 7 0 13 6 13 14 0 7-6 13-13 13z m141 42c-19 0-35 15-35 35 0 19 16 34 35 34 19 0 35-15 35-34 0-20-16-35-35-35z m0 48c-7 0-13-6-13-13 0-8 6-14 13-14 8 0 13 6 13 14 0 7-5 13-13 13z m141-266c-19 0-34 15-34 34 0 19 15 35 34 35 19 0 35-16 35-35 0-19-16-34-35-34z m0 48c-7 0-13-6-13-14 0-7 6-13 13-13 8 0 14 6 14 13 0 8-6 14-14 14z m142 106c-20 0-35 15-35 34 0 19 15 35 35 35 19 0 34-16 34-35 0-19-15-34-34-34z m0 48c-8 0-14-6-14-14 0-7 6-13 14-13 7 0 13 6 13 13 0 8-6 14-13 14z m-404-37c-3 0-7 2-9 5-3 5-2 11 3 15l101 63c5 3 12 2 15-3 3-5 2-12-3-15l-101-63c-2-2-4-2-6-2z m249-121c-3 0-7 1-9 5l-115 178c-3 5-2 11 3 14 5 4 12 2 15-3l115-178c3-5 2-11-3-15-2-1-4-1-6-1z m30-3c-3 0-6 1-8 3-4 4-4 11 0 15l108 119c4 4 11 4 15 0 5-4 5-11 1-15l-109-118c-2-3-5-4-7-4z"/>
<glyph unicode="&#76;" d="M437 2c-6 0-11 4-11 10l0 177c0 6 5 11 11 11 6 0 11-5 11-11l0-177c0-6-5-10-11-10z m0 397c-24 0-39 30-39 50 0 22 17 40 39 40 22 0 40-18 40-40 0-20-16-50-40-50z m0 68c-10 0-18-8-18-18 0-13 10-29 18-29 8 0 18 16 18 29 0 10-8 18-18 18z m37-465c0 0 0 0 0 0-6 0-11 5-10 11l11 209c0 3 2 7 4 9 3 2 7 3 10 3 3 99-2 130-4 139-2 0-5 0-7 0l-6 0c-1 0-2-1-2-2-6-11-19-18-33-18-14 0-27 7-33 18 0 1-1 2-2 2-5 0-93-15-122-20l109-10c6 0 10-5 10-10l0-112 11-208c1-6-4-11-10-11-6-1-11 4-11 10l-11 209 0 102-100 9c-11 1-19 10-19 21-1 11 6 19 17 21 19 3 120 20 125 21 9 0 18-5 22-14 6-11 23-10 28 0 4 9 13 14 22 14l6-1c11 0 13 0 15-1 2 0 3-1 4-2 5-4 18-15 12-167 0-3-2-7-4-9-3-2-7-3-10-3l-11-200c0-6-5-10-11-10z m-272 467c-6 0-10 5-10 11l0 21c0 6 4 11 10 11 6 0 11-5 11-11l0-21c0-6-5-11-11-11z m128 0c-6 0-10 5-10 11l0 21c0 6 4 11 10 11 6 0 11-5 11-11l0-21c0-6-5-11-11-11z m11-362l-331 0c-6 0-10 4-10 10l0 363c0 6 4 11 10 11l352 0c6 0 11-5 11-11 0-6-5-11-11-11l-341 0 0-341 320 0c6 0 11-5 11-11 0-6-5-10-11-10z m-257 161c-17 0-31 14-31 32 0 17 14 31 31 31 17 0 32-14 32-31 0-18-15-32-32-32z m0 42c-6 0-10-5-10-10 0-6 4-10 10-10 6 0 10 4 10 10 0 5-4 10-10 10z m107 32c-17 0-32 14-32 31 0 18 15 32 32 32 17 0 32-14 32-32 0-17-15-31-32-31z m0 42c-6 0-10-5-10-11 0-5 4-10 10-10 6 0 10 5 10 10 0 6-4 11-10 11z m88-209c-17 0-31 14-31 32 0 17 14 31 31 31 18 0 32-14 32-31 0-18-14-32-32-32z m0 42c-5 0-10-5-10-10 0-6 5-10 10-10 6 0 11 4 11 10 0 5-5 10-11 10z m-177 83c-4 0-7 2-9 5-3 4-2 11 2 14l69 51c5 4 11 3 15-2 3-5 2-11-2-15l-69-51c-2-1-4-2-6-2z m166-86c-4 0-8 2-9 5l-66 132c-3 6-1 12 5 15 5 2 11 0 14-5l66-132c2-5 0-12-5-14-2-1-3-1-5-1z m-2-214c-6 0-10 5-10 11l0 61c0 6 4 11 10 11 6 0 11-5 11-11l0-61c0-6-5-11-11-11z m54 0l-128 0c-6 0-11 5-11 11 0 6 5 10 11 10l128 0c6 0 10-4 10-10 0-6-4-11-10-11z"/>
<glyph unicode="&#77;" d="M437 2c-6 0-11 4-11 10l0 177c0 6 5 11 11 11 6 0 11-5 11-11l0-177c0-6-5-10-11-10z m0 397c-24 0-39 30-39 50 0 22 17 40 39 40 22 0 40-18 40-40 0-20-16-50-40-50z m0 68c-10 0-18-8-18-18 0-13 10-29 18-29 8 0 18 16 18 29 0 10-8 18-18 18z m37-465c0 0 0 0 0 0-6 0-11 5-10 11l11 209c0 3 2 7 4 9 3 2 7 3 10 3 3 100-2 130-4 139-2 0-5 0-7 0l-6 0c-1 0-1-1-2-2-6-11-18-18-33-18-14 0-27 7-33 18 0 1-1 2-2 2-5 0-93-15-122-20l109-10c6 0 10-5 10-10l0-112 11-208c1-6-4-11-10-11-6-1-11 4-11 10l-11 209 0 102-100 9c-11 1-19 10-19 21-1 11 6 19 17 21 19 3 120 20 125 21 9 0 18-5 22-14 6-10 23-10 28 0 4 9 13 14 22 14l6-1c11 0 13 0 15-1 2 0 3-1 4-2 5-4 18-15 12-167 0-3-2-7-4-9-3-2-7-3-10-3l-11-200c0-6-5-10-11-10z m-272 467c-5 0-10 5-10 11l0 21c0 6 5 11 10 11 6 0 11-5 11-11l0-21c0-6-5-11-11-11z m128 0c-5 0-10 5-10 11l0 21c0 6 5 11 10 11 6 0 11-5 11-11l0-21c0-6-5-11-11-11z m11-362l-331 0c-5 0-10 4-10 10l0 363c0 6 5 11 10 11l352 0c6 0 11-5 11-11 0-6-5-11-11-11l-341 0 0-341 320 0c6 0 11-5 11-11 0-6-5-10-11-10z m-75-107c-5 0-10 5-10 11l0 61c0 6 5 11 10 11 6 0 11-5 11-11l0-61c0-6-5-11-11-11z m54 0l-128 0c-6 0-11 5-11 11 0 6 5 10 11 10l128 0c6 0 10-4 10-10 0-6-4-11-10-11z m-160 171l-85 0c-6 0-11 4-11 10l0 86c0 6 5 10 11 10l85 0c6 0 11-4 11-10l0-86c0-6-5-10-11-10z m-75 21l64 0 0 64-64 0z m75 128l-85 0c-6 0-11 5-11 11l0 85c0 6 5 11 11 11l85 0c6 0 11-5 11-11l0-85c0-6-5-11-11-11z m-75 21l64 0 0 64-64 0z m221 43l-102 0c-6 0-10 5-10 11 0 6 4 10 10 10l102 0c6 0 11-4 11-10 0-6-5-11-11-11z m0-149l-102 0c-6 0-10 4-10 10 0 6 4 11 10 11l102 0c6 0 11-5 11-11 0-6-5-10-11-10z m-82 106l-20 0c-6 0-10 5-10 11 0 6 4 11 10 11l20 0c6 0 11-5 11-11 0-6-5-11-11-11z m0-149l-20 0c-6 0-10 5-10 11 0 6 4 10 10 10l20 0c6 0 11-4 11-10 0-6-5-11-11-11z"/>
<glyph unicode="&#78;" d="M276 415c-2 0-5 1-7 3-4 4-4 11 0 15l54 53c4 4 11 4 15 0l54-53c4-4 4-11 0-15-4-4-11-5-15 0l-47 46-46-46c-2-2-5-3-8-3z m-228-264c-5 0-10 4-10 10 0 6 4 11 10 11 11 0 272 12 272 255l0 52c0 6 4 10 10 10 6 0 11-4 11-10l0-52c0-264-289-276-292-276 0 0-1 0-1 0z m61 107c-58 0-105 47-105 105 0 58 47 105 105 105 58 0 105-47 105-105 0-58-47-105-105-105z m0 189c-46 0-84-38-84-84 0-46 38-83 84-83 46 0 84 37 84 83 0 46-38 84-84 84z m-1-144c-12 0-29 7-40 16-4 4-5 11-1 16 4 4 11 4 15 1 7-7 19-12 26-12 11 0 19 7 19 15 0 3 0 9-22 16-11 3-37 12-37 36 0 20 18 36 40 36 15 0 28-7 35-18 3-4 2-11-3-14-5-4-12-2-15 3-3 5-10 8-17 8-10 0-18-7-18-15 0-5 2-10 22-16 9-2 37-11 37-36 0-20-18-36-41-36z m0 103c-5 0-10 5-10 11l0 14c0 6 5 10 10 10 6 0 11-4 11-10l0-14c0-6-5-11-11-11z m0-117c-5 0-10 5-10 10l0 15c0 5 5 10 10 10 6 0 11-5 11-10l0-15c0-5-5-10-11-10z m394-289l-42 0c-6 0-11 5-11 11l0 448c0 6 5 10 11 10l42 0c6 0 11-4 11-10l0-448c0-6-5-11-11-11z m-32 21l22 0 0 427-22 0z m-74-21l-43 0c-6 0-11 5-11 11l0 256c0 6 5 10 11 10l43 0c6 0 10-4 10-10l0-256c0-6-4-11-10-11z m-32 21l21 0 0 235-21 0z m-75-21l-43 0c-5 0-10 5-10 11l0 149c0 6 5 11 10 11l43 0c6 0 11-5 11-11l0-149c0-6-5-11-11-11z m-32 21l21 0 0 128-21 0z m-75-21l-42 0c-6 0-11 5-11 11l0 85c0 6 5 11 11 11l42 0c6 0 11-5 11-11l0-85c0-6-5-11-11-11z m-32 21l22 0 0 64-22 0z m-74-21l-43 0c-6 0-11 5-11 11l0 64c0 6 5 10 11 10l43 0c6 0 10-4 10-10l0-64c0-6-4-11-10-11z m-32 21l21 0 0 43-21 0z"/>
</font>
</defs>
</svg>
